<svg width="268" height="55" viewBox="0 0 268 55" fill="none" xmlns="http://www.w3.org/2000/svg">
<path d="M22.5092 17.8211L21.2737 19.7162L16.8406 26.4583L6.52088 10.7146H0.525269V40.9629H6.99326V22.3037L14.9511 34.4759H18.6938L24.6167 25.4743L25.8522 23.5793L22.5092 17.8211Z" fill="white"/>
<path d="M86.2763 10.7517C96.9957 10.7517 102.083 17.0929 102.083 25.8759C102.083 34.6588 96.9957 41 86.2763 41H74.9755V10.7517H86.2763ZM86.2763 16.4369H81.4435V35.2784H86.2763C92.2719 35.2784 95.5059 32.0713 95.5059 25.8759C95.5059 19.6804 92.2719 16.4369 86.2763 16.4369Z" fill="white"/>
<path d="M116.769 10.7517C120.221 10.7517 123.673 11.5899 126.18 13.0112V18.8422C123.746 17.0929 120.475 16.2183 117.241 16.2547C114.08 16.2912 112.518 17.1658 112.518 18.9516C112.518 23.9808 128.397 22.1222 128.397 32.4358C128.397 38.9592 123.164 41 117.096 41C113.063 41 109.356 40.0525 106.377 38.3761V32.4358C109.683 34.6224 113.317 35.497 116.66 35.497C120.003 35.497 122.074 34.8046 122.074 32.7273C122.074 27.2972 106.195 29.338 106.195 19.0244C106.159 13.3757 111.064 10.7517 116.769 10.7517Z" fill="white"/>
<path d="M154.486 10.7508V16.436H139.697V22.8866H153.178V28.5354H139.697V35.2775H154.74V40.9627H133.229V10.7144H154.486V10.7508Z" fill="white"/>
<path d="M159.974 40.9629V10.7146H166.043L180.069 30.4671C179.996 29.228 179.924 27.6974 179.924 26.3125V10.7146H186.392V40.9629H180.323L166.297 21.2104C166.37 22.4495 166.442 23.9801 166.442 25.365V40.9629H159.974Z" fill="white"/>
<path d="M55.8986 16.2912C55.9349 15.7445 55.7896 15.1614 55.4989 14.6512L53.246 10.7517H50.9204L53.7547 15.6716C53.8637 15.8538 53.9001 16.0725 53.8637 16.2912H55.8986Z" fill="#2C3144"/>
<path d="M70.6921 27.2243L63.57 39.6152C63.0976 40.4534 62.1892 41 61.2081 41H46.964C45.9829 41 45.0745 40.4898 44.6021 39.6152L40.3506 32.2535L39.1879 30.2491L37.48 27.2607C37.0076 26.4225 37.0076 25.3657 37.48 24.5275L44.6021 12.1366C45.0745 11.2984 45.9829 10.7517 46.964 10.7517H50.9611L53.7954 15.6716C53.9044 15.8538 53.9407 16.0725 53.9044 16.2912H48.5992L43.0759 25.8759L45.5832 30.2127L46.6006 31.9984L48.5992 35.4606H59.6093L65.1325 25.8759L59.6093 16.2912H55.9029C55.9392 15.7445 55.7939 15.1614 55.5032 14.6512L53.2503 10.7517H61.2081C62.1892 10.7517 63.0976 11.2619 63.57 12.1366L70.6921 24.5275C71.2008 25.3292 71.2008 26.3861 70.6921 27.2243Z" fill="white"/>
<path d="M55.5005 14.6504L53.2476 10.7509L47.906 1.45775C47.3973 0.546657 46.4162 0 45.3624 0H30.1735C29.1198 0 28.175 0.546657 27.63 1.45775L20.0718 14.6504C19.5631 15.5615 19.5631 16.6548 20.0718 17.5659L21.3073 19.7161L24.6503 25.5106L26.7215 29.0821V25.0369L25.8858 23.6156L22.5428 17.821L21.816 16.5819C21.6707 16.2904 21.6707 15.9624 21.816 15.6708L29.4105 2.47817C29.5558 2.18662 29.8828 2.04085 30.2099 2.04085H45.3988C45.7258 2.04085 46.0165 2.22307 46.1982 2.47817L50.9583 10.7509L53.7926 15.6708C53.9016 15.853 53.938 16.0717 53.9016 16.2904C53.9016 16.3997 53.8653 16.4726 53.7926 16.5819L46.1982 29.7746C46.0528 29.9932 45.8348 30.1754 45.5805 30.2119L46.5979 31.9976C47.1429 31.7425 47.6153 31.3416 47.9424 30.795L55.5368 17.6023C55.7548 17.2015 55.9002 16.7641 55.9365 16.2904C55.9365 15.7073 55.7912 15.1606 55.5005 14.6504ZM33.1532 30.2119V32.2163H40.3479L39.1851 30.2119H33.1532Z" fill="#F17900"/>
<path d="M33.1558 10.7517V40.9636H26.6878V22.3408L25.852 23.6164L22.509 17.8218L27.1602 10.7517H33.1558Z" fill="white"/>
<path d="M178.709 54.396C177.869 54.396 177.101 54.276 176.405 54.036C175.733 53.796 175.229 53.316 174.893 52.596C174.557 51.852 174.485 50.736 174.677 49.248L176.405 37.188C176.573 35.892 176.933 34.908 177.485 34.236C178.061 33.54 178.781 33.072 179.645 32.832C180.533 32.568 181.517 32.436 182.597 32.436C183.677 32.436 184.613 32.568 185.405 32.832C186.197 33.096 186.785 33.564 187.169 34.236C187.553 34.908 187.649 35.892 187.457 37.188L187.061 39.996H184.361L184.757 37.116C184.877 36.276 184.841 35.652 184.649 35.244C184.481 34.812 184.193 34.536 183.785 34.416C183.401 34.272 182.933 34.2 182.381 34.2C181.829 34.2 181.325 34.272 180.869 34.416C180.437 34.536 180.065 34.812 179.753 35.244C179.465 35.652 179.261 36.276 179.141 37.116L177.377 49.788C177.257 50.652 177.281 51.3 177.449 51.732C177.617 52.14 177.905 52.416 178.313 52.56C178.721 52.68 179.201 52.74 179.753 52.74C180.569 52.74 181.277 52.488 181.877 51.984C182.477 51.48 182.837 50.748 182.957 49.788L183.605 45.432H181.121L181.337 43.776H186.521L185.081 54H183.029L183.137 52.056C183.041 52.2 182.945 52.344 182.849 52.488C182.753 52.608 182.657 52.716 182.561 52.812C182.177 53.268 181.673 53.652 181.049 53.964C180.449 54.252 179.669 54.396 178.709 54.396ZM187.11 54L194.562 32.724H198.342L199.71 54H196.65L196.326 49.32H191.682L190.062 54H187.11ZM191.97 47.88H196.47L195.93 35.748L191.97 47.88ZM202.337 54L205.361 32.724H208.133L205.397 52.056H211.049L210.725 54H202.337ZM213.059 54L216.083 32.724H218.855L216.119 52.056H221.771L221.447 54H213.059ZM223.782 54L226.806 32.724H236.166L235.842 34.704H229.398L228.39 41.832H233.646L233.322 43.992H228.102L226.986 52.056H233.43L233.142 54H223.782ZM236.052 54L239.076 32.724H246.06C247.332 32.724 248.292 33.024 248.94 33.624C249.588 34.2 249.828 35.088 249.66 36.288L249.192 39.672C249.024 40.896 248.532 41.856 247.716 42.552C246.924 43.248 245.892 43.62 244.62 43.668H244.656C245.448 43.716 245.988 43.98 246.276 44.46C246.564 44.94 246.792 45.684 246.96 46.692L248.04 54H245.016L244.188 46.872C244.14 46.44 244.056 46.032 243.936 45.648C243.84 45.264 243.684 44.964 243.468 44.748C243.252 44.508 242.952 44.388 242.568 44.388H240.3L238.932 54H236.052ZM240.552 42.444H243.36C244.248 42.444 244.944 42.228 245.448 41.796C245.976 41.364 246.312 40.62 246.456 39.564L246.852 36.756C246.972 35.892 246.84 35.268 246.456 34.884C246.096 34.5 245.616 34.308 245.016 34.308H241.704L240.552 42.444ZM253.159 54L254.455 44.748L252.187 32.724H255.031L256.363 40.824L256.399 41.724L256.723 40.824L260.539 32.724H263.167L257.227 44.892L255.931 54H253.159Z" fill="#F17900"/>
</svg>
